<mxfile host="65bd71144e">
    <diagram id="6I0OCvxSQrVGMHxT2VVA" name="Page-1">
        <mxGraphModel dx="1662" dy="1128" grid="0" gridSize="10" guides="1" tooltips="1" connect="1" arrows="1" fold="1" page="1" pageScale="1" pageWidth="850" pageHeight="1100" background="#d2cbcb" math="0" shadow="1">
            <root>
                <mxCell id="0"/>
                <mxCell id="1" parent="0"/>
                <mxCell id="WtVcBaEnB1_Sni-o9t-m-2" value="&lt;font face=&quot;Helvetica&quot; style=&quot;font-size: 24px;&quot;&gt;READY&lt;/font&gt;" style="ellipse;whiteSpace=wrap;html=1;fillColor=#60a917;strokeColor=#2D7600;shadow=1;fontColor=#ffffff;" parent="1" vertex="1">
                    <mxGeometry x="107" y="190.5" width="107" height="165" as="geometry"/>
                </mxCell>
                <mxCell id="36" value="&lt;font face=&quot;Helvetica&quot; style=&quot;font-size: 24px;&quot;&gt;RUNNING&lt;/font&gt;" style="ellipse;whiteSpace=wrap;html=1;fillColor=#008a00;strokeColor=#005700;shadow=1;fontColor=#ffffff;" vertex="1" parent="1">
                    <mxGeometry x="314" y="177" width="130" height="193" as="geometry"/>
                </mxCell>
                <mxCell id="37" value="&lt;font face=&quot;Helvetica&quot; style=&quot;font-size: 24px;&quot;&gt;TERM&lt;/font&gt;" style="ellipse;whiteSpace=wrap;html=1;fillColor=#fa6800;strokeColor=#C73500;shadow=1;fontColor=#000000;" vertex="1" parent="1">
                    <mxGeometry x="540" y="198" width="92" height="150" as="geometry"/>
                </mxCell>
                <mxCell id="38" value="" style="shape=doubleArrow;whiteSpace=wrap;html=1;fillColor=#b0e3e6;strokeColor=#0e8088;" vertex="1" parent="1">
                    <mxGeometry x="211" y="248" width="109" height="53" as="geometry"/>
                </mxCell>
                <mxCell id="39" value="" style="shape=singleArrow;whiteSpace=wrap;html=1;fillColor=#b0e3e6;strokeColor=#0e8088;" vertex="1" parent="1">
                    <mxGeometry x="447" y="247.5" width="91" height="51" as="geometry"/>
                </mxCell>
            </root>
        </mxGraphModel>
    </diagram>
</mxfile>